# xmcd
#
# Track frame offsets:
#	150
#	12832
#	28256
#	44429
#	58739
#	74973
#	92286
#	104465
#	123369
#	139923
#	155017
#	168034
#	185352
#	200505
#
# Disc length: 2884 seconds
#
# Revision: 1
# Processed by: cddbd v1.5.2PL0 Copyright (c) Steve Scherf et al.
# Submitted via: audiograbber 1.83.01
#
DISCID=c60b420e
DTITLE=Exile - Golden Legends
DYEAR=2006
DGENRE=Country
TTITLE0=Give Me One More Chance
TTITLE1=Crazy for Your Love
TTITLE2=She's a Miracle
TTITLE3=Woke Up in Love
TTITLE4=She's Too Good to Be True
TTITLE5=Just One Kiss
TTITLE6=I Could Get Used to You
TTITLE7=I Can't Get Close Enough
TTITLE8=Hang Onto Your Heart
TTITLE9=I Don't Want to Be a Memory
TTITLE10=It'll Be Me
TTITLE11=Super Love
TTITLE12=Middle of the Road
TTITLE13=Kiss You All Over
EXTD=The album is called Exile Golden Legends.New stereo recordings by the orig
EXTD=inal artists.\nMy nam
EXTT0=
EXTT1=
EXTT2=
EXTT3=
EXTT4=
EXTT5=
EXTT6=
EXTT7=
EXTT8=
EXTT9=
EXTT10=
EXTT11=
EXTT12=
EXTT13=
PLAYORDER=
